<?xml version="1.0" standalone="no"?>
<!DOCTYPE svg PUBLIC "-//W3C//DTD SVG 1.1//EN" "http://www.w3.org/Graphics/SVG/1.1/DTD/svg11.dtd" >
<svg xmlns="http://www.w3.org/2000/svg">
<metadata>Generated by IcoMoon</metadata>
<defs>
<font id="customicons" horiz-adv-x="512">
<font-face units-per-em="512" ascent="480" descent="-32" />
<missing-glyph horiz-adv-x="512" />
<glyph unicode="&#x20;" d="" horiz-adv-x="256" />
<glyph unicode="&#xe600;" d="M0 64h512v-64h-512zM64 192h64v-96h-64zM160 320h64v-224h-64zM256 224h64v-128h-64zM352 416h64v-320h-64z" />
<glyph unicode="&#xe601;" d="M64 480h-64v-512h512v64h-448zM385.28 175.248l-212.896-64.72 271.2 274.864 29.008-28.624-0.592 85.904-85.888-0.576 28.992-28.608-275.968-279.728 36.032 149.184 39.616-9.584-44.784 73.312-73.312-44.768 39.616-9.568-52.96-219.184-7.6-34.4 32.864 10.56 288.32 87.664 11.84-38.976 40.432 75.776-75.76 40.464z" />
<glyph unicode="&#xe602;" d="M194.656 480v0zM325.664 155.392v0zM313.664 151.248l79.344 27.376v136.992l118.992 164.384h-317.344l119.008-164.384v-164.368zM207.216 281.2c-2.272 0-4.144-0.736-5.616-2.208s-2.208-3.344-2.208-5.632v-46.976c0-2.288 0.736-4.16 2.208-5.648 1.472-1.456 3.344-2.192 5.616-2.192h74.432v62.656h-74.432zM281.664 155.936h-74.416c-2.288 0-4.16-0.736-5.632-2.192-1.472-1.472-2.208-3.376-2.208-5.664v-46.992c0-2.304 0.736-4.16 2.208-5.648 1.472-1.472 3.344-2.192 5.632-2.192h215.616c2.32 0 4.192 0.72 5.664 2.192 1.472 1.488 2.192 3.344 2.192 5.648v46.992c0 2.304-0.72 4.208-2.192 5.664-1.072 1.056-2.448 1.616-3.984 1.888l-142.864-49.296v49.6zM207.232 406.496c-2.272 0-4.144-0.736-5.616-2.208s-2.208-3.344-2.208-5.632v-46.992c0-2.288 0.736-4.16 2.208-5.632 1.456-1.472 3.344-2.208 5.616-2.192h46.48l-45.36 62.656h-1.12zM504.16 30.656h-296.928c-2.272 0-4.144-0.752-5.616-2.224s-2.208-3.376-2.208-5.648v-47.008c0-2.288 0.736-4.128 2.208-5.632 1.472-1.472 3.344-2.208 5.616-2.208h296.928c2.32 0 4.16 0.736 5.664 2.208 1.44 1.52 2.176 3.392 2.176 5.664v47.008c0 2.288-0.736 4.16-2.224 5.632-1.456 1.456-3.344 2.208-5.616 2.208zM173.568 61.984h-46.976v244.192c0 0.16-0.048 0.304-0.080 0.448v92.032c0 2.32-0.752 4.16-2.224 5.664-1.488 1.44-3.36 2.176-5.648 2.176h-46.992c-2.288 0-4.16-0.736-5.632-2.224-1.456-1.456-2.208-3.328-2.208-5.616v-86.144h-0.064v-244.192c0-0.384 0.144-0.72 0.192-1.072v-5.248h-46.992c-3.6 0-6.048-1.648-7.344-4.928-1.312-3.088-0.736-5.936 1.712-8.544l78.288-78.304c1.808-1.488 3.68-2.224 5.632-2.224 2.128 0 4 0.736 5.648 2.224l78.048 78.064c1.648 1.936 2.448 3.904 2.448 5.856l0.032-0.016c0 2.288-0.736 4.16-2.208 5.632s-3.344 2.224-5.632 2.224zM313.664 218.544v-67.296l79.344 27.376v136.992l118.992 164.384h-317.344l119.008-164.384v-97.072z" />
<glyph unicode="&#xe603;" d="M64 32h448v-64h-512v512h64zM144 64c-26.512 0-48 21.488-48 48s21.488 48 48 48c1.408 0 2.816-0.080 4.192-0.192l51.6 86c-4.912 7.536-7.792 16.528-7.792 26.208 0 26.512 21.488 48 48 48s48-21.488 48-48c0-9.664-2.864-18.672-7.792-26.208l51.6-86c1.376 0.112 2.784 0.192 4.192 0.192 1.072 0 2.128-0.048 3.168-0.112l85.184 149.056c-5.264 7.712-8.352 17.024-8.352 27.056 0 26.512 21.488 48 48 48s48-21.488 48-48c0-26.512-21.488-48-48-48-1.072 0-2.128 0.048-3.168 0.112l-85.184-149.056c5.264-7.696 8.352-17.024 8.352-27.056 0-26.512-21.488-48-48-48s-48 21.488-48 48c0 9.664 2.864 18.672 7.792 26.208l-51.6 86c-1.376-0.112-2.784-0.192-4.192-0.192s-2.816 0.080-4.192 0.192l-51.6-86c4.912-7.536 7.792-16.528 7.792-26.192 0-26.512-21.488-48-48-48z" />
<glyph unicode="&#xe604;" d="M370.672 480c-30.928 0-56-25.072-56-56 0-30.944 25.072-56 56-56 30.944 0 56 25.056 56 56 0 30.928-25.056 56-56 56zM370.672 393.68c-16.736 0-30.336 13.568-30.336 30.32 0 16.736 13.6 30.32 30.336 30.32 16.752 0 30.32-13.584 30.32-30.32 0-16.752-13.568-30.32-30.32-30.32zM56 480c-30.928 0-56-25.072-56-56s25.072-56 56-56 56 25.072 56 56-25.072 56-56 56zM56 393.68c-16.736 0-30.32 13.584-30.32 30.32s13.584 30.32 30.32 30.32 30.32-13.584 30.32-30.32-13.584-30.32-30.32-30.32zM269.344 424c0-30.928-25.072-56-56-56s-56 25.072-56 56c0 30.928 25.072 56 56 56s56-25.072 56-56zM197.328 290.672c0-30.928-25.072-56-56-56s-56 25.072-56 56c0 30.928 25.072 56 56 56s56-25.072 56-56zM512 290.672c0-30.928-25.072-56-56-56s-56 25.072-56 56c0 30.928 25.072 56 56 56s56-25.072 56-56zM354.672 24c0-30.928-25.072-56-56-56s-56 25.072-56 56c0 30.928 25.072 56 56 56s56-25.072 56-56zM298.672 346.672c-30.944 0-56-25.072-56-56 0-30.944 25.056-56 56-56s56 25.056 56 56c0 30.928-25.056 56-56 56zM298.672 260.352c-16.752 0-30.32 13.568-30.32 30.32 0 16.736 13.568 30.32 30.32 30.32s30.32-13.584 30.32-30.32c0-16.752-13.568-30.32-30.32-30.32zM56 213.328c-30.944 0-56-25.072-56-56 0-30.944 25.056-56 56-56s56 25.056 56 56c0 30.928-25.056 56-56 56zM56 127.008c-16.752 0-30.32 13.568-30.32 30.32 0 16.736 13.568 30.336 30.32 30.336s30.32-13.6 30.32-30.336c0-16.752-13.568-30.32-30.32-30.32zM141.328 80c-30.944 0-56-25.056-56-56s25.056-56 56-56 56 25.056 56 56-25.056 56-56 56zM141.328-6.32c-16.752 0-30.32 13.568-30.32 30.32s13.568 30.32 30.32 30.32 30.32-13.568 30.32-30.32-13.568-30.32-30.32-30.32zM456 80c-30.944 0-56-25.056-56-56s25.056-56 56-56 56 25.056 56 56-25.056 56-56 56zM456-6.32c-16.752 0-30.32 13.568-30.32 30.32s13.568 30.32 30.32 30.32 30.32-13.568 30.32-30.32-13.568-30.32-30.32-30.32zM370.672 213.328c-30.944 0-56-25.072-56-56 0-30.944 25.056-56 56-56s56 25.056 56 56c0 30.928-25.056 56-56 56zM370.672 127.008c-16.752 0-30.32 13.568-30.32 30.32 0 16.736 13.568 30.336 30.32 30.336s30.32-13.6 30.32-30.336c0-16.752-13.568-30.32-30.32-30.32zM213.344 213.328c-30.944 0-56-25.056-56-56s25.056-56 56-56 56 25.056 56 56-25.056 56-56 56zM213.344 127.008c-16.752 0-30.32 13.568-30.32 30.32s13.568 30.32 30.32 30.32 30.32-13.568 30.32-30.32-13.568-30.32-30.32-30.32z" />
<glyph unicode="&#xe605;" d="M112.416 299.84c-1.808 1.808-2.72 3.952-2.72 6.432v54.864c0 2.464 0.912 4.624 2.72 6.432s3.968 2.72 6.432 2.72h384c2.464 0 4.624-0.912 6.432-2.72s2.72-3.952 2.72-6.432v-54.864c0-2.48-0.912-4.624-2.72-6.432s-3.968-2.72-6.432-2.72h-98.064c-0.384 0.336-0.672 0.736-1.072 1.056-6.752 5.488-14.976 8.384-23.744 8.384h-44.608c-9.888 0-18.576-3.504-25.12-9.44h-191.392c-2.48 0-4.624 0.912-6.432 2.72zM118.848 406.832h384c2.464 0 4.624 0.912 6.432 2.72s2.72 3.968 2.72 6.432v54.864c0 2.48-0.912 4.624-2.72 6.432s-3.968 2.72-6.432 2.72h-384c-2.48 0-4.624-0.912-6.432-2.72s-2.72-3.952-2.72-6.432v-54.864c0-2.464 0.912-4.624 2.72-6.432s3.952-2.72 6.432-2.72zM502.848 260.576h-23.872c13.44-12.784 22.368-22.336 27.504-29.408 1.52-1.872 3.904-5.728 5.536-11.12v31.376c0 2.464-0.912 4.608-2.72 6.416s-3.984 2.736-6.448 2.736zM118.848 187.408h89.040c-5.792 8-7.328 16.064-7.328 21.6 0 7.52 2.4 14.784 7.12 21.584 4.8 6.688 12.192 14.848 23.392 25.888 1.568 1.552 2.944 2.704 4.416 4.096h-116.64c-2.48 0-4.624-0.912-6.432-2.72s-2.72-3.968-2.72-6.416v-54.88c0-2.464 0.912-4.624 2.72-6.432s3.952-2.72 6.432-2.72zM507.84 189.136c0.48 0.336 0.992 0.544 1.44 0.992 1.808 1.808 2.72 3.968 2.72 6.432v1.408c-0.976-3.072-2.384-6.016-4.16-8.832zM173.456 100.432v44.64c0 1.936 0.16 3.856 0.464 5.76h-55.072c-2.48 0-4.624-0.912-6.432-2.72s-2.72-3.952-2.72-6.432v-54.848c0-2.48 0.912-4.624 2.72-6.432s3.968-2.72 6.432-2.72h62.288c-5.024 6.656-7.68 14.528-7.68 22.752zM63.984 480h-54.864c-2.464 0-4.624-0.912-6.432-2.72s-2.72-3.952-2.72-6.432v-54.864c0-2.464 0.912-4.624 2.72-6.432s3.968-2.72 6.432-2.72h54.864c2.48 0 4.624 0.912 6.432 2.72s2.72 3.968 2.72 6.432v54.864c0 2.48-0.912 4.624-2.72 6.432s-3.952 2.72-6.432 2.72zM63.984 260.576h-54.864c-2.464 0-4.624-0.912-6.432-2.72s-2.72-3.968-2.72-6.416v-54.88c0-2.464 0.912-4.624 2.72-6.432s3.968-2.72 6.432-2.72h54.864c2.48 0 4.624 0.912 6.432 2.72s2.72 3.968 2.72 6.432v54.88c0 2.464-0.912 4.608-2.72 6.416s-3.952 2.72-6.432 2.72zM63.984 370.288h-54.864c-2.464 0-4.624-0.912-6.432-2.72s-2.72-3.968-2.72-6.432v-54.864c0-2.48 0.912-4.624 2.72-6.432s3.968-2.72 6.432-2.72h54.864c2.48 0 4.624 0.912 6.432 2.72s2.72 3.952 2.72 6.432v54.864c0 2.464-0.912 4.624-2.72 6.432s-3.952 2.72-6.432 2.72zM63.984 150.848h-54.864c-2.464 0-4.624-0.912-6.432-2.72s-2.72-3.952-2.72-6.432v-54.848c0-2.48 0.912-4.624 2.72-6.432s3.968-2.72 6.432-2.72h54.864c2.48 0 4.624 0.912 6.432 2.72s2.72 3.952 2.72 6.432v54.848c0 2.48-0.912 4.624-2.72 6.432s-3.952 2.72-6.432 2.72zM512 144.256v-44.592c0-1.616-0.56-3.168-1.616-4.656-1.072-1.472-2.416-2.336-4.016-2.576l-37.184-5.648c-2.544-7.232-5.152-13.328-7.824-18.304 4.672-6.704 11.856-15.936 21.52-27.728 1.328-1.6 2-3.264 2-5.008 0-1.712-0.608-3.28-1.824-4.624-3.6-4.976-10.224-12.192-19.872-21.696-9.664-9.504-15.968-14.288-18.896-14.288-1.616 0-3.36 0.624-5.232 1.824l-27.728 21.696c-5.888-3.088-11.984-5.648-18.304-7.648-2.128-18.224-4.080-30.688-5.824-37.376-0.944-3.744-3.344-5.632-7.232-5.632h-44.608c-1.888 0-3.52 0.576-4.928 1.696-1.424 1.12-2.176 2.592-2.304 4.336l-5.664 36.976c-6.56 2.16-12.576 4.64-18.080 7.456l-28.336-21.52c-1.328-1.2-3.008-1.808-5.008-1.808-1.872 0-3.552 0.736-5.008 2.208-16.88 15.264-27.936 26.528-33.152 33.76-0.944 1.344-1.408 2.912-1.408 4.624 0 1.616 0.544 3.152 1.616 4.624 2.016 2.816 5.424 7.28 10.256 13.376 4.816 6.096 8.432 10.832 10.848 14.16-3.616 6.72-6.368 13.36-8.24 19.92l-36.784 5.424c-1.744 0.256-3.136 1.104-4.208 2.496-1.072 1.424-1.616 2.992-1.616 4.72v44.624c0 1.616 0.544 3.152 1.616 4.624 1.072 1.488 2.336 2.336 3.808 2.592l37.392 5.648c1.872 6.176 4.48 12.336 7.824 18.496-5.376 7.632-12.528 16.88-21.504 27.712-1.344 1.632-2 3.232-2 4.848 0 1.328 0.608 2.88 1.808 4.624 3.488 4.816 10.080 12.016 19.792 21.6 9.712 9.6 16.064 14.384 19.008 14.384 1.744 0 3.472-0.672 5.232-2.016l27.712-21.504c5.904 3.088 12 5.632 18.304 7.648 2.144 18.224 4.080 30.672 5.84 37.376 0.928 3.744 3.328 5.632 7.216 5.632h44.608c1.872 0 3.536-0.576 4.928-1.712 1.424-1.136 2.192-2.592 2.32-4.32l5.648-36.992c6.56-2.144 12.592-4.624 18.096-7.424l28.512 21.504c1.232 1.216 2.832 1.824 4.848 1.824 1.728 0 3.408-0.672 5.008-2.016 17.28-15.936 28.336-27.328 33.152-34.176 0.944-1.056 1.408-2.528 1.408-4.4 0-1.616-0.544-3.136-1.616-4.624-2.016-2.816-5.424-7.264-10.24-13.376-4.848-6.096-8.448-10.832-10.88-14.16 3.488-6.704 6.256-13.28 8.24-19.696l36.8-5.648c1.728-0.272 3.136-1.104 4.224-2.496 0.992-1.44 1.552-3.008 1.552-4.768zM410.432 122.352c0 29.136-23.648 52.784-52.784 52.784s-52.784-23.648-52.784-52.784 23.648-52.768 52.784-52.768 52.784 23.632 52.784 52.768z" />
<glyph unicode="&#xe606;" d="M282.096 362.384c-0.784-3.632-1.76-7.216-2.944-10.752-1.248-3.744-2.592-7.136-4.032-10.192-1.28-2.752-2.784-5.328-4.448-7.728h49.312c4.208 0 8.48-0.56 12.864-1.712 3.44-1.136 6.464-0.368 9.136 2.288l14 14c2.304 2.288 3.136 5.040 2.576 8.288-0.56 3.056-2.288 5.248-5.136 6.576-10.288 4.768-21.424 7.152-33.424 7.152h-36.656c-0.336-2.56-0.64-5.088-1.248-7.92zM396.56 112.88c-3.808 1.536-7.136 0.864-10-2l-18.288-18.288c-1.712-1.712-2.592-3.808-2.592-6.304v-36c0-12.576-4.464-23.328-13.408-32.304-8.976-8.944-19.712-13.408-32.304-13.408h-237.696c-12.576 0-23.344 4.464-32.288 13.408-8.96 8.976-13.424 19.712-13.424 32.304v237.712c0 12.576 4.464 23.344 13.424 32.288 8.944 8.96 19.712 13.424 32.288 13.424h17.536c-3.776 6.256-5.76 13.696-5.76 22.704 0 2.112 0.128 4.88 0.448 8.288 0.16 1.744 0.544 3.712 0.816 5.6h-13.024c-22.672 0-42.048-8.048-58.144-24.144s-24.144-35.488-24.144-58.16v-237.712c0-22.672 8.048-42.048 24.144-58.144 16.096-16.080 35.488-24.144 58.144-24.144h237.712c22.656 0 42.048 8.064 58.144 24.16 16.112 16.096 24.144 35.472 24.144 58.144v54.304c0 3.984-1.92 6.736-5.728 8.272zM182.864 123.456v-82.304h82.288l192 192-82.288 82.288-192-191.984zM253.712 68.592h-16v27.408h-27.424v16l33.136 33.152 43.424-43.44-33.136-33.12zM379.12 264.88l-100-100c-3.216-3.232-6.352-3.328-9.408-0.288-3.056 3.024-2.976 6.176 0.288 9.408l100 100c3.232 3.248 6.368 3.344 9.424 0.288 3.040-3.024 2.944-6.176-0.304-9.408zM509.68 297.184c0 7.616-2.656 14.080-8 19.424l-43.408 43.424c-5.344 5.328-11.808 8-19.44 8-7.616 0-14.096-2.672-19.424-8l-26.288-26.288 82.304-82.288 26.304 26.288-0.032 0.016c5.328 5.328 7.984 11.808 7.984 19.424zM276.352 465.68c0-0.816-0.112-2.144-0.304-3.968-0.224-1.84-0.48-3.92-0.832-6.256-0.336-2.32-0.784-4.688-1.328-7.136s-1.184-4.736-1.936-6.832c-0.752-2.128-1.6-3.824-2.56-5.12-0.944-1.28-1.968-1.936-3.056-1.936-0.816 0-1.872 0.224-3.152 0.624-1.296 0.4-2.752 0.848-4.384 1.312-1.648 0.48-3.52 0.944-5.616 1.344-2.128 0.4-4.4 0.592-6.848 0.592-4.368 0-8.16-0.592-11.344-1.824-3.2-1.232-5.968-3.168-8.288-5.824s-4.288-6.096-5.904-10.32c-1.648-4.224-3.008-9.248-4.096-15.104l-3.056-15.52h33.088c2.032 0 3.472-0.656 4.288-1.936 0.816-1.312 1.216-3.376 1.216-6.24 0-1.36-0.096-3.136-0.304-5.312s-0.576-4.528-1.12-7.040c-0.544-2.528-1.232-4.992-2.048-7.456s-1.68-4.704-2.656-6.736c-0.944-2.048-2.064-3.712-3.376-5.008-1.28-1.296-2.688-1.936-4.176-1.936h-33.504l-32.064-160.144c-2.336-11.28-5.488-21.216-9.504-29.808-4.016-8.56-9.072-15.744-15.216-21.536-6.128-5.808-13.376-10.16-21.744-13.088-8.368-2.912-17.856-4.368-28.48-4.368-7.088 0-12.992 0.528-17.776 1.632-4.752 1.088-7.808 2.192-9.184 3.28-0.688 0.816-1.152 1.68-1.44 2.656-0.256 0.944-0.4 2.32-0.4 4.064 0 0.816 0.112 2.192 0.32 4.096s0.512 3.968 0.928 6.224 0.928 4.592 1.536 7.056c0.608 2.432 1.296 4.688 2.048 6.72 0.752 2.064 1.6 3.712 2.544 5.024 0.96 1.28 2.048 1.936 3.264 1.936 0.816 0 1.648-0.064 2.448-0.224 0.832-0.128 1.696-0.32 2.656-0.496 0.96-0.224 2.080-0.368 3.36-0.528 1.312-0.128 2.976-0.192 5.008-0.192 4.352 0 8.144 0.656 11.328 1.936 3.2 1.28 5.968 3.312 8.288 6.032s4.288 6.224 5.92 10.496c1.648 4.32 3.056 9.504 4.304 15.632l30.832 153.616h-22.88c-1.648 0-2.896 0.576-3.76 1.728-0.928 1.152-1.36 3.36-1.36 6.624 0 1.36 0.112 3.136 0.32 5.312s0.528 4.48 1.024 6.96c0.464 2.432 1.024 4.928 1.712 7.44 0.688 2.528 1.568 4.784 2.656 6.752s2.288 3.6 3.584 4.912c1.296 1.28 2.832 1.936 4.592 1.936h22.464l3.888 20.224c2.16 11.44 5.376 21.504 9.6 30.224s9.424 16 15.632 21.856c6.192 5.856 13.472 10.24 21.84 13.168s17.872 4.384 28.496 4.384c3.536 0 7.072-0.176 10.624-0.512 3.536-0.352 6.736-0.816 9.6-1.424s5.376-1.328 7.568-2.144c2.176-0.816 3.664-1.648 4.48-2.448 0.832-0.688 1.392-1.648 1.728-2.864s0.512-2.72 0.512-4.512z" />
<glyph unicode="&#xe607;" d="M414.656 155.344c-7.344 0-14.448-0.992-21.28-2.704l-80.496 156.944c19.008 16.144 31.12 40.176 31.12 67.088 0 48.608-39.408 88-88 88-48.608 0-88-39.392-88-88 0-26.176 11.488-49.616 29.632-65.728l-80.112-158.208c-6.688 1.648-13.648 2.592-20.848 2.592-48.608 0-88-39.392-88-88s39.392-88.016 88-88.016c41.696 0 76.56 29.056 85.632 68.016h146.736c9.072-38.96 43.92-68 85.632-68 48.592 0 88 39.408 88 88.016-0.016 48.592-39.424 88-88.016 88zM232.8 291.856c7.408-2.016 15.152-3.2 23.2-3.2 7.344 0 14.448 0.992 21.28 2.688l80.496-156.944c-14.16-12.016-24.4-28.4-28.752-47.088h-146.736c-4.384 18.832-14.768 35.36-29.088 47.392l79.6 157.152z" />
<glyph unicode="&#xe608;" d="M329.136 235.424v-18.288c0-2.672-0.864-4.864-2.576-6.576s-3.904-2.576-6.576-2.576h-100.576v-100.576c0-2.656-0.864-4.864-2.576-6.576-1.696-1.696-3.904-2.576-6.576-2.576h-18.288c-2.672 0-4.864 0.88-6.576 2.576-1.712 1.712-2.576 3.92-2.576 6.576v100.576h-100.576c-2.672 0-4.864 0.864-6.576 2.576s-2.576 3.904-2.576 6.576v18.288c0 2.672 0.864 4.864 2.576 6.576s3.92 2.576 6.576 2.576h100.576v100.576c0 2.672 0.864 4.848 2.576 6.576s3.904 2.576 6.576 2.576h18.288c2.672 0 4.88-0.864 6.576-2.576 1.712-1.712 2.576-3.904 2.576-6.576v-100.576h100.576c2.672 0 4.864-0.864 6.576-2.576s2.576-3.904 2.576-6.576zM365.712 107.424v237.712c0 12.576-4.48 23.328-13.44 32.288-8.928 8.944-19.696 13.424-32.272 13.424h-237.712c-12.576 0-23.328-4.464-32.288-13.424-8.96-8.944-13.424-19.712-13.424-32.288v-237.712c0-12.576 4.464-23.328 13.424-32.288s19.712-13.424 32.288-13.424h237.712c12.576 0 23.344 4.464 32.288 13.424s13.424 19.712 13.424 32.288zM402.288 345.136v-237.712c0-22.672-8.032-42.048-24.144-58.144-16.096-16.096-35.488-24.144-58.144-24.144h-237.712c-22.672 0-42.048 8.048-58.144 24.144s-24.144 35.472-24.144 58.144v237.712c0 22.672 8.048 42.048 24.144 58.144s35.488 24.144 58.144 24.144h237.712c22.656 0 42.048-8.048 58.144-24.144 16.112-16.096 24.144-35.472 24.144-58.144z" horiz-adv-x="400" />
<glyph unicode="&#xe609;" d="M365.68 324.592c0 7.616-1.888 16-5.696 25.136s-8.368 16.368-13.696 21.696l-89.136 89.136c-5.328 5.328-12.576 9.904-21.712 13.712s-17.536 5.728-25.152 5.728h-182.864c-7.616 0-14.096-2.672-19.424-8s-8-11.808-8-19.424v-384c0-7.632 2.672-14.096 8-19.424s11.808-8 19.424-8h110.624c1.28-2.624 2.416-5.28 3.92-7.84 10.72-18.384 25.264-32.944 43.648-43.664 18.368-10.72 38.432-16.080 60.192-16.080s41.824 5.36 60.208 16.080 32.928 25.264 43.648 43.664c2.912 4.976 5.344 10.112 7.456 15.328 0.208 0.192 0.416 0.336 0.624 0.512 5.328 5.328 8 11.792 8 19.424v24.928c0-4.8-0.352-9.472-0.896-14.096 0.528 4.624 0.896 9.296 0.896 14.096v231.072l-0.064 0.016zM340.24 167.504c-0.064 0.080-0.128 0.128-0.176 0.208 0.048-0.080 0.112-0.128 0.176-0.208zM219.424 441.136c5.536-1.92 9.424-4 11.712-6.288l89.424-89.424c2.288-2.288 4.368-6.176 6.288-11.696h-107.424v107.408zM285.76 18.544c0-1.456-0.464-2.656-1.408-3.6s-2.144-1.408-3.6-1.408h-69.952c-1.456 0-2.656 0.464-3.6 1.408s-1.408 2.144-1.408 3.6v24.992c0 1.472 0.464 2.656 1.408 3.6s2.144 1.408 3.6 1.408h14.992v49.968h-14.992c-1.456 0-2.656 0.464-3.6 1.408s-1.408 2.144-1.408 3.6v24.96c0 1.472 0.464 2.656 1.408 3.6s2.144 1.424 3.6 1.424h49.968c1.456 0 2.656-0.48 3.6-1.424s1.408-2.128 1.408-3.6v-79.952h14.992c1.456 0 2.656-0.464 3.6-1.408s1.408-2.128 1.408-3.6v-24.976zM225.776 158.464v24.992c0 1.456 0.464 2.64 1.408 3.6 0.96 0.928 2.144 1.408 3.616 1.408h29.984c1.456 0 2.656-0.48 3.6-1.408 0.944-0.96 1.408-2.144 1.408-3.6v-24.992c0-1.472-0.464-2.656-1.408-3.6s-2.144-1.408-3.6-1.408h-29.984c-1.472 0-2.656 0.464-3.616 1.408-0.928 0.944-1.408 2.128-1.408 3.6zM245.792 213.424c-21.76 0-41.824-5.36-60.192-16.080-18.384-10.72-32.928-25.264-43.648-43.664-10.72-18.352-16.080-38.432-16.080-60.192 0-5.36 0.336-10.624 0.992-15.776h-90.288v365.712h146.288v-118.864c0-7.616 2.672-14.096 8-19.424s11.808-8 19.424-8h118.88v-117.408c-6.912 6.672-14.576 12.608-23.152 17.616-18.384 10.72-38.448 16.080-60.224 16.080zM131.248 58.176c-0.128 0.384-0.288 0.768-0.4 1.152 0.128-0.384 0.272-0.768 0.4-1.152zM357.2 48.976c1.504 3.728 2.8 7.536 3.888 11.392-1.104-3.872-2.384-7.664-3.888-11.392zM362.4 65.712c0.688 2.944 1.28 5.904 1.744 8.912-0.464-2.992-1.056-5.968-1.744-8.912z" horiz-adv-x="368" />
<glyph unicode="&#xe60a;" d="M494.576 265.568c-1.696 2.192-3.872 3.504-6.608 3.92l-35.76 5.472-203.408-203.392c-6.72-6.704-15.296-10.24-24.816-10.24-9.536 0-18.112 3.536-24.816 10.24l-119.584 119.584c-6.704 6.736-10.24 15.296-10.24 24.816s3.536 18.096 10.224 24.816l32.672 32.672c13.408 13.392 36.256 13.376 49.632 0l19.392-19.472c3.92 9.792 9.84 18.752 17.904 26.832 15.696 15.68 34.64 23.536 56.8 23.536 17.488 0 32.88-5.056 46.336-14.8l70.704 70.816c13.456 13.408 36.192 13.408 49.616 0.016l19.536-19.536c3.632 4.672 6.512 8.512 8.464 11.232 1.664 2.304 2.496 4.704 2.496 7.232 0 2.928-0.736 5.232-2.192 6.896-7.52 10.672-24.784 28.48-51.792 53.376-2.512 2.096-5.12 3.152-7.808 3.152-3.184 0-5.68-0.944-7.568-2.832l-44.592-33.584c-8.56 4.384-17.968 8.256-28.256 11.616l-8.768 57.744c-0.224 2.72-1.408 4.976-3.6 6.736-2.224 1.776-4.8 2.672-7.712 2.672h-69.664c-6.080 0-9.84-2.928-11.312-8.784-2.72-10.464-5.744-29.92-9.088-58.384-9.856-3.136-19.376-7.12-28.576-11.936l-43.328 33.6c-2.72 2.080-5.44 3.136-8.16 3.136-4.608 0-14.496-7.472-29.664-22.448s-25.488-26.224-30.928-33.76c-1.888-2.704-2.832-5.104-2.832-7.2 0-2.528 1.040-5.024 3.136-7.552 14.032-16.944 25.232-31.392 33.6-43.312-5.232-9.648-9.296-19.264-12.224-28.88l-58.384-8.8c-2.304-0.4-4.288-1.76-5.968-4.064s-2.512-4.704-2.512-7.232v-69.664c0-2.752 0.848-5.2 2.512-7.408s3.872-3.52 6.592-3.904l57.456-8.48c2.944-10.256 7.216-20.608 12.88-31.072-3.76-5.216-9.424-12.608-16.96-22.144-7.536-9.52-12.88-16.464-16.016-20.88-1.68-2.32-2.512-4.72-2.512-7.264 0-2.688 0.736-5.12 2.192-7.2 8.16-11.296 25.424-28.896 51.792-52.752 2.304-2.304 4.928-3.424 7.84-3.424 3.136 0 5.744 0.928 7.84 2.816l44.272 33.632c8.576-4.384 18-8.304 28.256-11.664l8.784-57.728c0.208-2.736 1.392-4.992 3.616-6.784 2.192-1.76 4.768-2.656 7.696-2.656h69.664c6.096 0 9.856 2.944 11.312 8.8 2.736 10.448 5.76 29.92 9.088 58.368 9.856 3.12 19.376 7.088 28.576 11.936l43.328-33.904c2.912-1.888 5.664-2.848 8.16-2.848 4.592 0 14.432 7.44 29.504 22.304 15.072 14.88 25.456 26.176 31.072 33.904 1.888 2.080 2.864 4.512 2.864 7.2 0 2.768-1.056 5.36-3.152 7.856-15.056 18.416-26.288 32.864-33.616 43.312 4.208 7.728 8.256 17.264 12.256 28.576l58.080 8.784c2.528 0.416 4.576 1.776 6.288 4.080 1.664 2.336 2.496 4.736 2.496 7.248v69.664c-0.016 2.752-0.848 5.184-2.512 7.392zM389.968 343.376l-166-166.272-79.072 79.376c-2.24 2.24-4.576 3.184-7.824 3.184-3.216 0-5.632-0.992-7.84-3.2l-32.656-32.656c-2.224-2.224-3.216-4.656-3.216-7.856 0-3.184 0.992-5.632 3.232-7.856l119.568-119.568c4.448-4.448 11.2-4.464 15.696 0.016l206.496 206.48c2.208 2.224 3.2 4.656 3.2 7.856 0 3.168-0.992 5.616-3.232 7.856l-32.656 32.64c-4.464 4.432-11.232 4.464-15.696 0z" />
<glyph unicode="&#xe60b;" d="M139.808 110.624c0 10.592 3.936 20.16 11.392 27.648l28.704 28.704c-4.272 2.8-8.336 6.032-12.176 9.856-14.288 14.288-21.424 31.536-21.424 51.712s7.136 37.424 21.424 51.712 31.52 21.424 51.712 21.424c20.192 0 37.424-7.152 51.712-21.424 14.288-14.288 21.424-31.52 21.424-51.712s-7.136-37.44-21.424-51.712c-6.816-6.8-14.336-11.872-22.48-15.44l49.776-49.952 140.4 140.64v7.6c0 2.48-0.768 4.72-2.288 6.72-1.536 2-3.536 3.184-6 3.568l-52.304 8c-2.848 9.136-6.752 18.48-11.696 28 3.424 4.752 8.56 11.472 15.424 20.144s11.712 15.008 14.576 19.008c1.52 2.096 2.288 4.288 2.288 6.576 0 2.672-0.672 4.752-2 6.288-6.848 9.712-22.544 25.92-47.136 48.576-2.288 1.904-4.656 2.864-7.12 2.864-2.864 0-5.152-0.864-6.88-2.576l-40.56-30.576c-7.808 4-16.368 7.52-25.712 10.576l-8 52.576c-0.176 2.48-1.28 4.528-3.28 6.144s-4.336 2.432-7.008 2.432h-63.424c-5.52 0-8.96-2.672-10.288-8-2.464-9.52-5.232-27.232-8.288-53.136-8.944-2.864-17.616-6.48-26-10.864l-39.424 30.576c-2.48 1.904-4.944 2.864-7.424 2.864-4.192 0-13.2-6.816-27.008-20.432-13.808-13.632-23.2-23.872-28.144-30.72-1.712-2.48-2.576-4.656-2.576-6.576 0-2.304 0.96-4.592 2.864-6.864 12.768-15.424 22.96-28.576 30.576-39.424-4.752-8.768-8.464-17.536-11.136-26.288l-53.136-8c-2.080-0.368-3.904-1.616-5.424-3.712s-2.288-4.304-2.288-6.576v-63.424c0-2.48 0.768-4.72 2.288-6.72s3.52-3.184 6-3.568l52.288-7.712c2.672-9.328 6.576-18.752 11.712-28.288-3.424-4.752-8.576-11.472-15.424-20.16-6.864-8.656-11.712-15.008-14.576-19.008-1.52-2.096-2.288-4.288-2.288-6.576 0-2.464 0.672-4.672 2-6.576 7.424-10.288 23.136-26.288 47.136-48 2.080-2.096 4.464-3.12 7.136-3.12 2.848 0 5.232 0.848 7.136 2.56l40.288 30.592c5.28-2.704 11.024-5.104 17.008-7.392l-9.52 9.52c-7.472 7.504-11.408 17.056-11.408 27.648zM177.44 17.696c0.192-2.464 1.28-4.528 3.28-6.16 2-1.616 4.336-2.416 7.008-2.416h37.344l-54.656 54.656 7.024-46.080zM509.92 202.592l-32.64 32.64c-2.992 2.992-7.040 2.96-10.048-0.032l-168.816-169.072-81.92 82.208c-1.456 1.472-2.816 2.016-4.992 2.016-2.16 0-3.52-0.544-4.992-2.032l-32.656-32.656c-1.488-1.488-2.032-2.864-2.032-5.024s0.544-3.536 2.064-5.024l119.552-119.568c2.976-2.976 7.040-2.96 10.048 0.016l206.496 206.48c1.44 1.456 2.016 2.88 2.016 5.024 0 2.112-0.576 3.52-2.080 5.024z" />
<glyph unicode="&#xe60c;" d="M256.001 383.394v32.606h64v32c0 17.673-14.327 32-32.001 32h-95.999c-17.673 0-32-14.327-32-32v-32h64v-32.606c-107.399-8.169-192-97.901-192-207.394 0-114.875 93.125-208 208-208s208 93.125 208 208c0 109.492-84.601 199.224-192 207.394zM353.138 62.863c-30.221-30.22-70.399-46.863-113.137-46.863s-82.917 16.643-113.137 46.863c-30.22 30.22-46.863 70.4-46.863 113.137s16.643 82.917 46.863 113.137c29.020 29.019 67.224 45.509 108.057 46.774l-10.839-157.010c-0.93-13.145 6.232-18.901 15.918-18.901s16.849 5.756 15.918 18.901l-10.838 157.011c40.833-1.266 79.038-17.756 108.058-46.775 30.22-30.22 46.863-70.4 46.863-113.137s-16.643-82.917-46.863-113.137z" />
<glyph unicode="&#xe60d;" d="M421.006 185.26c-6.824 6.723-21.957 10.283-44.986 10.586-15.589 0.172-34.351-1.201-54.085-3.964-8.837 5.099-17.946 10.647-25.094 17.329-19.231 17.958-35.284 42.886-45.288 70.297 0.652 2.56 1.207 4.81 1.724 7.106 0 0 10.833 61.53 7.965 82.333-0.395 2.853-0.637 3.681-1.404 5.898l-0.941 2.417c-2.948 6.796-8.724 13.997-17.783 13.604l-5.458 0.172c-10.1 0-18.332-5.166-20.493-12.887-6.569-24.217 0.209-60.446 12.491-107.369l-3.144-7.643c-8.794-21.438-19.815-43.030-29.539-62.079l-1.264-2.476c-10.23-20.019-19.512-37.013-27.927-51.411l-8.688-4.594c-0.632-0.334-15.522-8.209-19.014-10.322-29.628-17.691-49.261-37.77-52.518-53.708-1.036-5.085-0.265-11.593 5.007-14.607l8.403-4.229c3.645-1.826 7.489-2.751 11.427-2.751 21.102 0 45.6 26.286 79.348 85.183 38.965 12.684 83.327 23.228 122.207 29.045 29.629-16.684 66.071-28.273 89.071-28.273 4.084 0 7.606 0.389 10.466 1.148 4.411 1.168 8.129 3.683 10.396 7.096 4.463 6.716 5.367 15.966 4.156 25.438-0.361 2.812-2.606 6.288-5.035 8.661zM105.823 72.976c3.848 10.521 19.080 31.322 41.602 49.778 1.416 1.148 4.904 4.416 8.097 7.451-23.551-37.562-39.323-52.533-49.699-57.229zM239.217 380.157c6.783 0 10.642-17.097 10.962-33.127s-3.429-27.28-8.079-35.604c-3.851 12.324-5.713 31.75-5.713 44.452 0 0-0.283 24.279 2.83 24.279zM199.426 161.253c4.725 8.458 9.641 17.378 14.665 26.839 12.246 23.158 19.979 41.278 25.739 56.173 11.455-20.842 25.722-38.56 42.493-52.756 2.092-1.771 4.309-3.551 6.637-5.325-34.105-6.748-63.582-14.955-89.534-24.931zM414.452 163.174c-2.077-1.299-8.027-2.050-11.854-2.050-12.353 0-27.636 5.647-49.063 14.833 8.234 0.609 15.781 0.919 22.55 0.919 12.391 0 16.060 0.054 28.175-3.036s12.269-9.367 10.192-10.666zM451.716 380.285l-71.432 71.431c-15.556 15.556-46.284 28.284-68.284 28.284h-240c-22 0-40-18-40-40v-432c0-22 18-40 40-40h368c22 0 40 18 40 40v304c0 22-12.728 52.729-28.284 68.285zM429.089 357.657c1.565-1.565 3.125-3.487 4.64-5.657h-81.729v81.728c2.17-1.515 4.092-3.075 5.657-4.64l71.432-71.431zM448 8c0-4.336-3.664-8-8-8h-368c-4.336 0-8 3.664-8 8v432c0 4.336 3.664 8 8 8h240c2.416 0 5.127-0.305 8-0.852v-127.148h127.148c0.547-2.873 0.852-5.583 0.852-8v-304z" />
<glyph unicode="&#xf007;" d="M402.286 74q0-34.286-20.857-54.143t-55.428-19.857h-249.714q-34.572 0-55.428 19.857t-20.857 54.143q0 15.143 1 29.572t4 31.143 7.572 31 12.285 27.857 17.715 23.143 24.428 15.286 31.857 5.714q2.572 0 12-6.143t21.285-13.714 30.857-13.714 38.143-6.143 38.143 6.143 30.857 13.714 21.286 13.714 12 6.143q17.428 0 31.857-5.714t24.428-15.285 17.714-23.143 12.286-27.857 7.572-31 4-31.143 1-29.572zM310.857 329.143q0-45.428-32.143-77.572t-77.572-32.143-77.572 32.143-32.143 77.572 32.143 77.571 77.572 32.143 77.572-32.143 32.143-77.571z" horiz-adv-x="403" />
<glyph unicode="&#xf00a;" d="M146.286 118.857v-54.857q0-11.428-8-19.428t-19.428-8h-91.428q-11.428 0-19.428 8t-8 19.428v54.857q0 11.428 8 19.428t19.428 8h91.428q11.428 0 19.428-8t8-19.428zM146.286 265.143v-54.857q0-11.428-8-19.428t-19.428-8h-91.428q-11.428 0-19.428 8t-8 19.428v54.857q0 11.429 8 19.429t19.428 8h91.428q11.428 0 19.428-8t8-19.428zM329.143 118.857v-54.857q0-11.428-8-19.428t-19.428-8h-91.428q-11.428 0-19.428 8t-8 19.428v54.857q0 11.428 8 19.428t19.428 8h91.428q11.428 0 19.428-8t8-19.428zM146.286 411.429v-54.857q0-11.428-8-19.428t-19.428-8h-91.428q-11.428 0-19.428 8t-8 19.428v54.857q0 11.428 8 19.428t19.428 8h91.428q11.428 0 19.428-8t8-19.428zM329.143 265.143v-54.857q0-11.428-8-19.428t-19.428-8h-91.428q-11.428 0-19.428 8t-8 19.428v54.857q0 11.429 8 19.429t19.428 8h91.428q11.428 0 19.428-8t8-19.428zM512 118.857v-54.857q0-11.428-8-19.428t-19.428-8h-91.428q-11.428 0-19.428 8t-8 19.428v54.857q0 11.428 8 19.428t19.428 8h91.428q11.428 0 19.428-8t8-19.428zM329.143 411.429v-54.857q0-11.428-8-19.428t-19.428-8h-91.428q-11.428 0-19.428 8t-8 19.428v54.857q0 11.428 8 19.428t19.428 8h91.428q11.428 0 19.428-8t8-19.428zM512 265.143v-54.857q0-11.428-8-19.428t-19.428-8h-91.428q-11.428 0-19.428 8t-8 19.428v54.857q0 11.429 8 19.429t19.428 8h91.428q11.428 0 19.428-8t8-19.428zM512 411.429v-54.857q0-11.428-8-19.428t-19.428-8h-91.428q-11.428 0-19.428 8t-8 19.428v54.857q0 11.428 8 19.428t19.428 8h91.428q11.428 0 19.428-8t8-19.428z" />
<glyph unicode="&#xf00c;" d="M477.428 313.714q0-11.428-8-19.428l-245.714-245.714q-8-8-19.428-8t-19.428 8l-142.286 142.286q-8 8-8 19.428t8 19.428l38.857 38.857q8 8 19.428 8t19.428-8l84-84.285 187.429 187.714q8 8 19.428 8t19.428-8l38.857-38.857q8-8 8-19.428z" />
<glyph unicode="&#xf00d;" d="M370.857 97.714q0-11.428-8-19.428l-38.857-38.857q-8-8-19.428-8t-19.428 8l-84 84-84-84q-8-8-19.428-8t-19.428 8l-38.857 38.857q-8 8-8 19.428t8 19.428l84 84-84 84q-8 8-8 19.428t8 19.428l38.857 38.857q8 8 19.428 8t19.428-8l84-84 84 84q8 8 19.428 8t19.428-8l38.857-38.857q8-8 8-19.428t-8-19.428l-84-84 84-84q8-8 8-19.428z" horiz-adv-x="403" />
<glyph unicode="&#xf013;" d="M292.572 219.429q0 30.286-21.428 51.714t-51.714 21.428-51.714-21.428-21.428-51.714 21.428-51.714 51.714-21.428 51.714 21.428 21.428 51.714zM438.857 250.572v-63.428q0-3.428-2.286-6.572t-5.714-3.714l-52.857-8q-5.428-15.428-11.143-26 10-14.286 30.572-39.428 2.857-3.428 2.857-7.143t-2.572-6.572q-7.714-10.572-28.286-30.857t-26.857-20.286q-3.428 0-7.428 2.572l-39.428 30.857q-12.572-6.572-26-10.857-4.572-38.857-8.286-53.143-2-8-10.286-8h-63.428q-4 0-7 2.428t-3.286 6.143l-8 52.572q-14 4.572-25.714 10.572l-40.285-30.572q-2.857-2.572-7.143-2.572-4 0-7.143 3.143-36 32.572-47.143 48-2 2.857-2 6.572 0 3.428 2.285 6.572 4.285 6 14.572 19t15.428 20.143q-7.715 14.286-11.715 28.286l-52.285 7.714q-3.715 0.572-6 3.572t-2.285 6.714v63.428q0 3.428 2.285 6.572t5.428 3.714l53.143 8q4 13.143 11.143 26.286-11.428 16.286-30.572 39.428-2.857 3.428-2.857 6.857 0 2.857 2.572 6.572 7.428 10.286 28.143 30.714t27 20.428q3.715 0 7.428-2.857l39.428-30.572q12.572 6.572 26 10.857 4.572 38.857 8.286 53.143 2 8 10.286 8h63.428q4 0 7-2.428t3.286-6.143l8-52.571q14-4.572 25.714-10.572l40.572 30.572q2.572 2.571 6.857 2.571 3.714 0 7.143-2.857 36.857-34 47.143-48.572 2-2.286 2-6.286 0-3.428-2.286-6.571-4.286-6-14.572-19t-15.428-20.143q7.428-14.286 11.714-28l52.286-8q3.714-0.571 6-3.571t2.286-6.714z" />
<glyph unicode="&#xf016;" d="M36.572 36.572h292.572v219.428h-118.857q-11.429 0-19.429 8t-8 19.429v118.857h-146.286v-365.714zM219.429 292.572h107.429q-2.857 8.286-6.286 11.714l-89.428 89.428q-3.429 3.429-11.714 6.286v-107.428zM365.714 283.429v-256q0-11.428-8-19.428t-19.428-8h-310.857q-11.428 0-19.428 8t-8 19.428v384q0 11.428 8 19.428t19.428 8h182.857q11.429 0 25.143-5.714t21.714-13.714l89.143-89.143q8-8 13.714-21.714t5.714-25.143z" horiz-adv-x="366" />
<glyph unicode="&#xf019;" d="M365.714 91.429q0 7.428-5.428 12.857t-12.857 5.428-12.857-5.428-5.428-12.857 5.428-12.857 12.857-5.428 12.857 5.428 5.428 12.857zM438.857 91.429q0 7.428-5.428 12.857t-12.857 5.428-12.857-5.428-5.428-12.857 5.428-12.857 12.857-5.428 12.857 5.428 5.428 12.857zM475.428 155.429v-91.428q0-11.428-8-19.428t-19.428-8h-420.572q-11.428 0-19.428 8t-8 19.428v91.428q0 11.428 8 19.428t19.428 8h132.857l38.571-38.857q16.572-16 38.857-16t38.857 16l38.857 38.857h132.572q11.428 0 19.428-8t8-19.428zM382.572 318q4.857-11.714-4-20l-128-128q-5.143-5.428-12.857-5.428t-12.857 5.428l-128 128q-8.857 8.286-4 20 4.857 11.143 16.857 11.143h73.143v128q0 7.429 5.428 12.857t12.857 5.428h73.143q7.428 0 12.857-5.428t5.428-12.857v-128h73.143q12 0 16.857-11.143z" horiz-adv-x="476" />
<glyph unicode="&#xf048;" d="M279.714 435.143q5.428 5.428 9.143 3.714t3.714-9.143v-420.572q0-7.428-3.714-9.143t-9.143 3.714l-202.857 202.857q-2.572 2.572-3.715 5.428v-193.714q0-7.428-5.428-12.857t-12.857-5.428h-36.572q-7.428 0-12.857 5.428t-5.428 12.857v402.286q0 7.428 5.428 12.857t12.857 5.429h36.572q7.428 0 12.857-5.429t5.428-12.857v-193.714q1.143 3.143 3.715 5.428z" horiz-adv-x="293" />
<glyph unicode="&#xf051;" d="M12.857 3.714q-5.428-5.428-9.143-3.714t-3.715 9.143v420.572q0 7.428 3.715 9.143t9.143-3.714l202.857-202.857q2.286-2.286 3.714-5.428v193.714q0 7.428 5.428 12.857t12.857 5.429h36.571q7.428 0 12.857-5.429t5.428-12.857v-402.286q0-7.428-5.428-12.857t-12.857-5.428h-36.572q-7.428 0-12.857 5.428t-5.429 12.857v193.714q-1.429-2.857-3.714-5.428z" horiz-adv-x="293" />
<glyph unicode="&#xf053;" d="M212 26l-186.286 186q-10.572 10.572-10.572 25.857t10.572 25.857l186.286 186q10.572 10.571 25.857 10.571t25.857-10.571l21.428-21.429q10.572-10.571 10.572-25.857t-10.572-25.857l-138.857-138.857 138.857-138.571q10.572-10.857 10.572-26t-10.572-25.714l-21.428-21.428q-10.572-10.572-25.857-10.572t-25.857 10.572z" horiz-adv-x="329" />
<glyph unicode="&#xf054;" d="M314 237.714q0-14.857-10.572-26l-186.286-186q-10.572-10.572-25.715-10.572t-25.715 10.572l-21.715 21.428q-10.572 11.143-10.572 26 0 15.143 10.572 25.714l138.857 138.857-138.857 138.572q-10.572 11.143-10.572 26 0 15.143 10.572 25.714l21.715 21.428q10.285 10.857 25.715 10.857t25.715-10.857l186.286-186q10.572-10.571 10.572-25.714z" horiz-adv-x="329" />
<glyph unicode="&#xf05a;" d="M292.572 82.286v45.714q0 4-2.572 6.572t-6.572 2.572h-27.428v146.286q0 4-2.571 6.572t-6.571 2.571h-91.428q-4 0-6.572-2.571t-2.571-6.572v-45.714q0-4 2.571-6.572t6.572-2.572h27.428v-91.428h-27.428q-4 0-6.572-2.572t-2.571-6.572v-45.714q0-4 2.571-6.572t6.572-2.572h128q4 0 6.572 2.572t2.572 6.572zM256 338.286v45.715q0 4-2.571 6.571t-6.571 2.572h-54.857q-4 0-6.571-2.572t-2.571-6.571v-45.715q0-4 2.571-6.571t6.572-2.572h54.857q4 0 6.571 2.572t2.572 6.572zM438.857 219.429q0-59.714-29.428-110.143t-79.857-79.857-110.143-29.428-110.143 29.428-79.857 79.857-29.428 110.143 29.428 110.143 79.857 79.857 110.143 29.428 110.143-29.428 79.857-79.857 29.428-110.143z" />
<glyph unicode="&#xf060;" d="M438.857 219.429v-36.572q0-15.143-9.286-25.857t-24.143-10.714h-201.143l83.715-84q10.857-10.286 10.857-25.714t-10.857-25.714l-21.428-21.714q-10.572-10.572-25.714-10.572-14.857 0-26 10.572l-186 186.286q-10.572 10.572-10.572 25.714 0 14.857 10.572 26l186 185.714q10.857 10.857 26 10.857 14.857 0 25.714-10.857l21.428-21.143q10.857-10.857 10.857-26t-10.857-26l-83.714-83.714h201.143q14.857 0 24.143-10.714t9.286-25.857z" />
<glyph unicode="&#xf061;" d="M420.572 201.143q0-15.428-10.572-26l-186-186q-11.143-10.572-26-10.572-14.572 0-25.714 10.572l-21.428 21.428q-10.857 10.857-10.857 26t10.857 26l83.714 83.714h-201.143q-14.857 0-24.143 10.714t-9.286 25.857v36.572q0 15.143 9.286 25.857t24.143 10.714h201.143l-83.714 84q-10.857 10.286-10.857 25.714t10.857 25.715l21.428 21.428q10.857 10.857 25.714 10.857 15.143 0 26-10.857l186-186q10.572-10 10.572-25.714z" />
<glyph unicode="&#xf07c;" d="M536.857 203.429q0-8.857-8.857-18.857l-96-113.143q-12.286-14.572-34.428-24.714t-41-10.143h-310.857q-9.715 0-17.285 3.714t-7.572 12.286q0 8.857 8.857 18.857l96 113.143q12.286 14.572 34.428 24.714t41 10.143h310.857q9.715 0 17.285-3.714t7.572-12.286zM438.857 301.714v-45.714h-237.714q-26.857 0-56.286-13.572t-46.857-34.143l-97.715-114.857q0 1.143-0.143 3.572t-0.143 3.572v274.286q0 26.286 18.857 45.143t45.143 18.857h91.428q26.285 0 45.143-18.857t18.857-45.143v-9.143h155.429q26.286 0 45.143-18.857t18.857-45.143z" horiz-adv-x="549" />
<glyph unicode="&#xf08e;" d="M402.286 210.286v-91.428q0-34-24.143-58.143t-58.143-24.143h-237.714q-34 0-58.143 24.143t-24.143 58.143v237.714q0 34 24.143 58.143t58.143 24.143h201.143q4 0 6.572-2.572t2.572-6.572v-18.285q0-4-2.572-6.572t-6.572-2.572h-201.143q-18.857 0-32.285-13.428t-13.428-32.286v-237.714q0-18.857 13.428-32.286t32.285-13.428h237.715q18.857 0 32.286 13.428t13.428 32.286v91.428q0 4 2.572 6.572t6.572 2.571h18.286q4 0 6.572-2.571t2.572-6.572zM512 457.143v-146.286q0-7.428-5.428-12.857t-12.857-5.428-12.857 5.428l-50.286 50.286-186.286-186.286q-2.857-2.857-6.572-2.857t-6.572 2.857l-32.572 32.572q-2.857 2.857-2.857 6.572t2.857 6.572l186.286 186.286-50.286 50.285q-5.428 5.429-5.428 12.857t5.428 12.857 12.857 5.428h146.286q7.428 0 12.857-5.428t5.428-12.857z" />
<glyph unicode="&#xf0b0;" d="M400.857 391.143q4.857-11.714-4-20l-140.857-140.857v-212q0-12-11.143-16.857-3.714-1.428-7.143-1.428-7.714 0-12.857 5.428l-73.143 73.143q-5.428 5.428-5.428 12.857v138.857l-140.857 140.857q-8.857 8.286-4 20 4.857 11.143 16.857 11.143h365.714q12 0 16.857-11.143z" horiz-adv-x="403" />
<glyph unicode="&#xf0dc;" d="M292.572 164.572q0-7.428-5.428-12.857l-128-128q-5.428-5.428-12.857-5.428t-12.857 5.428l-128 128q-5.428 5.428-5.428 12.857t5.428 12.857 12.857 5.428h256q7.428 0 12.857-5.428t5.428-12.857zM292.572 274.286q0-7.428-5.428-12.857t-12.857-5.428h-256q-7.428 0-12.857 5.428t-5.428 12.857 5.428 12.857l128 128q5.429 5.428 12.857 5.428t12.857-5.428l128-128q5.428-5.428 5.428-12.857z" horiz-adv-x="293" />
<glyph unicode="&#xf0dd;" d="M292.572 164.572q0-7.428-5.428-12.857l-128-128q-5.428-5.428-12.857-5.428t-12.857 5.428l-128 128q-5.428 5.428-5.428 12.857t5.428 12.857 12.857 5.428h256q7.428 0 12.857-5.428t5.428-12.857z" horiz-adv-x="293" />
<glyph unicode="&#xf0de;" d="M292.572 274.286q0-7.428-5.428-12.857t-12.857-5.428h-256q-7.428 0-12.857 5.428t-5.428 12.857 5.428 12.857l128 128q5.429 5.428 12.857 5.428t12.857-5.428l128-128q5.428-5.428 5.428-12.857z" horiz-adv-x="293" />
<glyph unicode="&#xf100;" d="M179.143 82.286q0-3.714-2.857-6.572l-14.286-14.286q-2.857-2.857-6.572-2.857t-6.572 2.857l-133.143 133.143q-2.857 2.857-2.857 6.572t2.857 6.572l133.143 133.143q2.857 2.857 6.572 2.857t6.572-2.857l14.286-14.286q2.857-2.857 2.857-6.571t-2.857-6.572l-112.285-112.286 112.285-112.286q2.857-2.857 2.857-6.572zM288.857 82.286q0-3.714-2.857-6.572l-14.286-14.286q-2.857-2.857-6.572-2.857t-6.572 2.857l-133.143 133.143q-2.857 2.857-2.857 6.572t2.857 6.572l133.143 133.143q2.857 2.857 6.572 2.857t6.572-2.857l14.286-14.286q2.857-2.857 2.857-6.571t-2.857-6.572l-112.286-112.286 112.286-112.286q2.857-2.857 2.857-6.572z" horiz-adv-x="293" />
<glyph unicode="&#xf101;" d="M170 201.143q0-3.714-2.857-6.572l-133.143-133.143q-2.857-2.857-6.572-2.857t-6.572 2.857l-14.286 14.286q-2.857 2.857-2.857 6.572t2.857 6.572l112.285 112.286-112.285 112.286q-2.857 2.857-2.857 6.572t2.857 6.572l14.285 14.286q2.857 2.857 6.572 2.857t6.572-2.857l133.143-133.143q2.857-2.857 2.857-6.572zM279.714 201.143q0-3.714-2.857-6.572l-133.143-133.143q-2.857-2.857-6.571-2.857t-6.572 2.857l-14.285 14.286q-2.857 2.857-2.857 6.572t2.857 6.572l112.285 112.286-112.285 112.286q-2.857 2.857-2.857 6.572t2.857 6.572l14.285 14.286q2.857 2.857 6.572 2.857t6.572-2.857l133.143-133.143q2.857-2.857 2.857-6.572z" horiz-adv-x="293" />
<glyph unicode="&#xf104;" d="M179.143 320q0-3.714-2.857-6.571l-112.285-112.286 112.285-112.286q2.857-2.857 2.857-6.572t-2.857-6.572l-14.286-14.286q-2.857-2.857-6.572-2.857t-6.572 2.857l-133.143 133.143q-2.857 2.857-2.857 6.572t2.857 6.572l133.143 133.143q2.857 2.857 6.572 2.857t6.572-2.857l14.286-14.286q2.857-2.857 2.857-6.571z" horiz-adv-x="183" />
<glyph unicode="&#xf105;" d="M170 201.143q0-3.714-2.857-6.572l-133.143-133.143q-2.857-2.857-6.572-2.857t-6.572 2.857l-14.286 14.286q-2.857 2.857-2.857 6.572t2.857 6.572l112.285 112.286-112.285 112.286q-2.857 2.857-2.857 6.572t2.857 6.572l14.285 14.286q2.857 2.857 6.572 2.857t6.572-2.857l133.143-133.143q2.857-2.857 2.857-6.572z" horiz-adv-x="183" />
<glyph unicode="&#xf15d;" d="M340.286 358.857h50.572l-20.572 62.286-3.428 13.428q-0.572 4.572-0.572 5.714h-1.143l-0.857-5.714q0-0.286-1-5.143t-2.143-8.286zM210.286 64q0-3.428-2.857-6.857l-91.143-91.143q-2.857-2.572-6.572-2.572-3.428 0-6.572 2.572l-91.428 91.428q-4.285 4.572-2 10 2.285 5.714 8.572 5.714h54.857v393.143q0 4 2.572 6.572t6.572 2.571h54.857q4 0 6.571-2.571t2.571-6.572v-393.143h54.857q4 0 6.572-2.572t2.571-6.572zM449.143 30v-66.572h-166.857v25.714l105.428 151.143q3.428 5.143 6 7.714l3.143 2.572v0.857q-0.572 0-1.857-0.143t-2.143-0.143q-3.428-0.857-8.572-0.857h-66.286v-32.857h-34.286v65.428h162v-25.428l-105.428-151.428q-1.714-2.286-6-7.428l-3.143-3.143v-0.572l4 0.572q2.572 0.572 8.572 0.572h70.857v34h34.572zM474.572 286.286v-30.285h-82.286v30.286h21.428l-13.428 41.143h-69.428l-13.428-41.143h21.428v-30.286h-82v30.286h20l65.714 189.143h46.286l65.714-189.143h20z" horiz-adv-x="476" />
<glyph unicode="&#xf15e;" d="M340.286 66.286h50.572l-20.572 62.286-3.428 13.428q-0.572 4.572-0.572 5.714h-1.143l-0.857-5.714q0-0.286-1-5.143t-2.143-8.286zM210.286 64q0-3.428-2.857-6.857l-91.143-91.143q-2.857-2.572-6.572-2.572-3.428 0-6.572 2.572l-91.428 91.428q-4.285 4.572-2 10 2.285 5.714 8.572 5.714h54.857v393.143q0 4 2.572 6.572t6.572 2.571h54.857q4 0 6.571-2.571t2.571-6.572v-393.143h54.857q4 0 6.572-2.572t2.571-6.572zM474.572-6.286v-30.286h-82.286v30.286h21.428l-13.428 41.143h-69.428l-13.428-41.143h21.428v-30.285h-82v30.286h20l65.714 189.143h46.286l65.714-189.143h20zM449.143 322.572v-66.571h-166.857v25.714l105.428 151.143q3.428 5.143 6 7.715l3.143 2.571v0.857q-0.572 0-1.857-0.143t-2.143-0.143q-3.428-0.857-8.572-0.857h-66.286v-32.857h-34.286v65.428h162v-25.428l-105.428-151.429q-1.714-2.286-6-7.428l-3.143-2.857v-0.857l4 0.857q2.572 0.286 8.572 0.286h70.857v34h34.572z" horiz-adv-x="476" />
<glyph unicode="&#xf162;" d="M384.572 100.286q0 18-12.572 33.143t-29.428 15.143q-14.857 0-23.714-10.572t-8.857-26.857 10.428-27.143 29.857-10.857q14.286 0 24.286 7.714t10 19.428zM210.286 64q0-3.428-2.857-6.857l-91.143-91.143q-2.857-2.572-6.572-2.572-3.428 0-6.572 2.572l-91.428 91.428q-4.285 4.572-2 10 2.285 5.714 8.572 5.714h54.857v393.143q0 4 2.572 6.572t6.572 2.571h54.857q4 0 6.571-2.571t2.571-6.572v-393.143h54.857q4 0 6.572-2.572t2.571-6.572zM424.572 83.714q0-17.714-3.714-34.714t-11.714-32.572-19.428-27.286-28.143-18.714-36.428-7q-17.714 0-30.857 4.572-6.857 2.286-12 4.286l11.143 32.286q4.286-2 8.857-3.143 10.572-3.714 21.428-3.714 24 0 38.428 16.714t19 41.572h-0.572q-6-6.572-17.572-10.572t-24.143-4q-30.286 0-49.428 20.428t-19.143 49.286q0 30 20.572 50.857t51.714 20.857q35.143 0 58.572-27t23.428-72.143zM416 288.572v-32.571h-134v32.572h47.714v123.428q0 2 0.143 5.428t0.143 4.857v4.571h-0.572l-2-3.428q-2.286-3.714-7.428-8.857l-17.714-16.572-23.428 24.572 54.857 52.857h35.143v-186.857h47.143z" />
<glyph unicode="&#xf163;" d="M384.572 392.857q0 18-12.572 33.143t-29.428 15.143q-14.857 0-23.714-10.572t-8.857-26.857 10.428-27.143 29.857-10.857q14.286 0 24.286 7.714t10 19.428zM210.286 64q0-3.428-2.857-6.857l-91.143-91.143q-2.857-2.572-6.572-2.572-3.428 0-6.572 2.572l-91.428 91.428q-4.285 4.572-2 10 2.285 5.714 8.572 5.714h54.857v393.143q0 4 2.572 6.572t6.572 2.571h54.857q4 0 6.571-2.571t2.571-6.572v-393.143h54.857q4 0 6.572-2.572t2.571-6.572zM416-4v-32.572h-134v32.572h47.714v123.428q0 2 0.143 5.428t0.143 4.857v4.572h-0.572l-2-3.428q-2.286-3.714-7.428-8.857l-17.714-16.572-23.428 24.572 54.857 52.857h35.143v-186.857h47.143zM424.572 376.286q0-17.714-3.714-34.714t-11.714-32.572-19.428-27.286-28.143-18.714-36.428-7q-17.714 0-30.857 4.572-6.857 2.286-12 4.286l11.143 32.286q4.286-2 8.857-3.143 10.572-3.714 21.428-3.714 24 0 38.428 16.715t19 41.572h-0.572q-6-6.572-17.572-10.572t-24.143-4q-30.286 0-49.428 20.428t-19.143 49.286q0 30 20.572 50.857t51.714 20.857q35.143 0 58.572-27t23.428-72.143z" />
<glyph unicode="&#xf188;" d="M466.286 201.143q0-7.428-5.428-12.857t-12.857-5.428h-64q0-48.857-19.143-82.857l59.428-59.714q5.428-5.428 5.428-12.857t-5.428-12.857q-5.143-5.428-12.857-5.428t-12.857 5.428l-56.572 56.286q-1.428-1.428-4.286-3.714t-12-8.143-18.572-10.428-23.428-8.286-27.714-3.714v256h-36.572v-256q-14.572 0-29 3.857t-24.857 9.428-18.857 11.143-12.428 9.286l-4.286 4-52.285-59.143q-5.715-6-13.715-6-6.857 0-12.285 4.572-5.428 5.143-5.857 12.714t4.428 13.286l57.715 64.857q-16.572 32.572-16.572 78.286h-64q-7.428 0-12.857 5.428t-5.428 12.857 5.428 12.857 12.857 5.428h64v84l-49.428 49.428q-5.428 5.428-5.428 12.857t5.428 12.857 12.857 5.428 12.857-5.428l49.428-49.428h241.143l49.428 49.428q5.428 5.428 12.857 5.428t12.857-5.428 5.428-12.857-5.428-12.857l-49.428-49.428v-84h64q7.428 0 12.857-5.428t5.428-12.857zM329.143 365.714h-182.857q0 38 26.715 64.715t64.714 26.714 64.714-26.714 26.714-64.715z" horiz-adv-x="476" />
</font>
</defs>
</svg>
