<?xml version="1.0" encoding="utf-8"?>
<!-- Generator: Adobe Illustrator 19.2.1, SVG Export Plug-In . SVG Version: 6.00 Build 0)  -->
<svg version="1.1" id="Layer_1" xmlns="http://www.w3.org/2000/svg" xmlns:xlink="http://www.w3.org/1999/xlink" x="0px" y="0px"
	 viewBox="0 0 53.4 52.1" enable-background="new 0 0 53.4 52.1" xml:space="preserve">
<path fill="#D4403A" d="M34.9,0l-4,12.3c5.6,1.8,9.6,7,9.6,13.2c0,7.6-6.2,13.8-13.8,13.8c-7.6,0-13.8-6.2-13.8-13.8
	c0-6.1,4-11.4,9.6-13.2L18.5,0C7.8,3.5,0,13.5,0,25.4c0,14.8,12,26.7,26.7,26.7c14.8,0,26.7-12,26.7-26.7C53.4,13.5,45.7,3.5,34.9,0
	z"/>
<path fill="#FFFFFF" d="M43.3,9.1H28V1.8c0-0.7-0.6-1.2-1.2-1.2s-1.2,0.6-1.2,1.2v7.2H10.1c-0.7,0-1.2,0.6-1.2,1.2v30.5
	c0,0.7,0.6,1.2,1.2,1.2h15.3v2.6c0,0.7,0.6,1.2,1.2,1.2s1.2-0.6,1.2-1.2v-2.6h15.3c0.7,0,1.2-0.6,1.2-1.2V10.3
	C44.5,9.7,44,9.1,43.3,9.1z M42,24.9h-6.5v-0.3c0-0.3-0.2-0.5-0.5-0.5s-0.5,0.2-0.5,0.5v0.3h-7v-6.4h0.2c0.3,0,0.5-0.2,0.5-0.5
	s-0.2-0.5-0.5-0.5h-0.2v-5.9H42V24.9z M26,11.6v5.9h-0.2c-0.3,0-0.5,0.2-0.5,0.5s0.2,0.5,0.5,0.5H26v6.4h-7v-0.3
	c0-0.3-0.2-0.5-0.5-0.5s-0.5,0.2-0.5,0.5v0.3h-6.5V11.6H26z M11.4,26.4h6.5v0.3c0,0.3,0.2,0.5,0.5,0.5s0.5-0.2,0.5-0.5v-0.3h7v6.4
	h-0.2c-0.3,0-0.5,0.2-0.5,0.5s0.2,0.5,0.5,0.5H26v5.9H11.4V26.4z M27.5,39.6v-5.9h0.2c0.3,0,0.5-0.2,0.5-0.5s-0.2-0.5-0.5-0.5h-0.2
	v-6.4h7v0.3c0,0.3,0.2,0.5,0.5,0.5s0.5-0.2,0.5-0.5v-0.3H42v13.3H27.5z"/>
</svg>
