<?xml version="1.0" encoding="utf-8"?>
<!-- Generator: Adobe Illustrator 16.0.4, SVG Export Plug-In . SVG Version: 6.00 Build 0)  -->
<!DOCTYPE svg PUBLIC "-//W3C//DTD SVG 1.1//EN" "http://www.w3.org/Graphics/SVG/1.1/DTD/svg11.dtd">
<svg version="1.1" id="Layer_1" xmlns="http://www.w3.org/2000/svg" xmlns:xlink="http://www.w3.org/1999/xlink" x="0px" y="0px"
	 width="612px" height="792px" viewBox="0 0 612 792" enable-background="new 0 0 612 792" xml:space="preserve">
<path fill="#D43F3A" d="M388.007,92.711l-39.599,122.565c55.522,17.982,95.796,70.164,95.796,131.598
	c0,76.266-62.047,138.313-138.312,138.313c-76.266,0-138.314-62.048-138.314-138.313c0-61.435,40.272-113.616,95.797-131.598
	L223.777,92.711C116.462,127.359,38.811,228.026,38.811,346.874c0,147.505,119.576,267.082,267.082,267.082
	c147.507,0,267.082-119.576,267.082-267.082C572.975,228.026,495.323,127.359,388.007,92.711z"/>
<path fill="#FFFFFF" d="M507.954,384.194H321.483v-75.609h186.471c8.892,0,16.097-7.207,16.097-16.096
	c0-8.889-7.206-16.096-16.097-16.096H321.483V25.664c0-8.889-7.205-16.096-16.096-16.096c-8.89,0-16.096,7.207-16.096,16.096
	v250.729h-185.46c-8.893,0-16.098,7.207-16.098,16.096c0,8.889,7.205,16.096,16.098,16.096h185.46v75.609h-185.46
	c-8.893,0-16.098,7.207-16.098,16.096s7.205,16.096,16.098,16.096h185.46v97.859c0,8.889,7.206,16.096,16.096,16.096
	c8.891,0,16.096-7.207,16.096-16.096v-97.859h186.471c8.892,0,16.097-7.207,16.097-16.096S516.845,384.194,507.954,384.194z"/>
<g enable-background="new    ">
	<path fill="#FFFFFF" d="M45.287,687.988v66.027H33.546v-66.027H9.095v-11.633h60.642v11.633H45.287z"/>
	<path fill="#FFFFFF" d="M105.713,705.868c-1.723-0.573-3.411-0.861-5.062-0.861c-3.95,0-7.253,1.329-9.909,3.985
		c-2.73,2.729-4.093,6.032-4.093,9.909v35.114H75.015v-58.811h11.633v4.632c4.309-4.38,9.586-6.571,15.833-6.571
		c0.574,0,1.256,0.037,2.047,0.108c0.789,0.072,1.686,0.18,2.693,0.323v11.202L105.713,705.868z"/>
	<path fill="#FFFFFF" d="M177.934,727.195c-0.108,0.935-0.234,2.012-0.377,3.231h-49.44c1.148,3.807,3.302,6.966,6.463,9.479
		c3.662,2.873,7.718,4.309,12.171,4.309c6.175,0,11.417-2.655,15.726-7.971l9.802,6.355c-3.161,4.165-6.984,7.415-11.471,9.748
		c-4.489,2.332-9.174,3.5-14.057,3.5c-8.546,0-15.871-3.086-21.973-9.263c-6.177-6.103-9.263-13.428-9.263-21.974
		c0-8.545,3.086-15.904,9.263-22.081c6.103-6.175,13.427-9.264,21.973-9.264c8.545,0,15.904,3.089,22.081,9.264
		c6.175,6.177,9.263,13.536,9.263,22.081C178.095,725.401,178.041,726.263,177.934,727.195z M128.116,718.687h37.376
		c-1.292-3.948-3.484-7.109-6.571-9.479c-3.447-2.8-7.504-4.2-12.171-4.2c-4.453,0-8.509,1.4-12.171,4.2
		C131.418,711.793,129.264,714.953,128.116,718.687z"/>
	<path fill="#FFFFFF" d="M189.728,754.016v-77.66h11.633v77.66H189.728z"/>
	<path fill="#FFFFFF" d="M215.362,754.016v-77.66h11.633v77.66H215.362z"/>
	<path fill="#FFFFFF" d="M252.306,687.665c-1.508,1.508-3.339,2.262-5.493,2.262s-3.985-0.754-5.494-2.262
		c-1.508-1.508-2.262-3.339-2.262-5.493s0.754-3.985,2.262-5.493c1.508-1.509,3.339-2.263,5.494-2.263s3.985,0.754,5.493,2.263
		c1.508,1.508,2.262,3.339,2.262,5.493S253.814,686.157,252.306,687.665z M240.997,754.016v-58.811h11.633v58.811H240.997z"/>
	<path fill="#FFFFFF" d="M306.593,751.538c-4.884,2.872-10.305,4.309-16.265,4.309c-6.032,0-11.417-1.437-16.157-4.309
		c-5.673-3.517-8.509-8.652-8.509-15.402h11.633c0,3.304,1.508,5.53,4.524,6.678c1.147,0.432,2.423,0.772,3.824,1.023
		c1.4,0.253,2.962,0.377,4.686,0.377c8.688,0,13.033-2.297,13.033-6.894c0-3.016-2.873-5.133-8.617-6.354
		c-5.458-1.077-9.659-1.921-12.603-2.531c-2.945-0.609-4.704-1.023-5.278-1.239c-6.823-2.728-10.232-7.863-10.232-15.402
		c0-5.888,2.656-10.557,7.971-14.003c4.524-3.016,9.765-4.524,15.726-4.524c5.959,0,11.202,1.509,15.726,4.524
		c5.385,3.52,8.079,8.582,8.079,15.188h-11.741c0-3.087-1.33-5.241-3.985-6.463c-1.149-0.502-2.37-0.879-3.662-1.131
		c-1.292-0.251-2.765-0.377-4.416-0.377c-3.088,0-5.746,0.503-7.971,1.508c-2.73,1.222-4.093,2.98-4.093,5.278
		c0,3.088,2.871,5.242,8.617,6.462c11.417,2.154,17.412,3.412,17.988,3.771h-0.108c6.821,2.729,10.233,7.827,10.233,15.295
		C314.994,743.281,312.193,748.021,306.593,751.538z"/>
	<path fill="#FFFFFF" d="M381.775,743.46c-2.945,3.878-6.607,6.912-10.987,9.102c-4.381,2.189-9.013,3.285-13.896,3.285
		c-8.546,0-15.87-3.086-21.973-9.263c-6.177-6.103-9.264-13.428-9.264-21.974c0-8.545,3.087-15.904,9.264-22.081
		c6.103-6.175,13.427-9.264,21.973-9.264c4.883,0,9.568,1.168,14.057,3.501c4.487,2.334,8.311,5.584,11.472,9.748l-9.802,6.355
		c-4.381-5.241-9.623-7.863-15.727-7.863c-5.457,0-10.089,1.903-13.895,5.709c-3.807,3.807-5.709,8.438-5.709,13.895
		c0,5.458,1.902,10.09,5.709,13.895c3.806,3.808,8.438,5.709,13.895,5.709c6.033,0,11.273-2.655,15.727-7.971l8.832,5.709
		L381.775,743.46z"/>
	<path fill="#FFFFFF" d="M445.971,746.584c-6.177,6.177-13.536,9.263-22.081,9.263c-8.546,0-15.87-3.086-21.974-9.263
		c-6.176-6.103-9.263-13.428-9.263-21.974c0-8.545,3.087-15.904,9.263-22.081c6.104-6.175,13.428-9.264,21.974-9.264
		c8.545,0,15.904,3.089,22.081,9.264c6.176,6.177,9.264,13.536,9.264,22.081C455.234,733.156,452.146,740.481,445.971,746.584z
		 M437.785,710.716c-3.808-3.806-8.439-5.709-13.896-5.709c-5.458,0-10.089,1.903-13.896,5.709
		c-3.807,3.807-5.708,8.438-5.708,13.895c0,5.458,1.901,10.09,5.708,13.895c3.807,3.808,8.438,5.709,13.896,5.709
		c5.456,0,10.088-1.901,13.896-5.709c3.805-3.805,5.709-8.437,5.709-13.895C443.494,719.154,441.59,714.522,437.785,710.716z"/>
	<path fill="#FFFFFF" d="M521.153,746.368c-5.673,6.32-12.71,9.479-21.112,9.479c-4.453,0-8.438-0.826-11.955-2.478
		c-3.52-1.65-6.716-4.128-9.587-7.432v26.928h-11.633v-77.66h11.633v7.971c2.871-3.231,6.067-5.69,9.587-7.379
		c3.518-1.686,7.502-2.531,11.955-2.531c8.33,0,15.331,3.161,21.004,9.479c5.602,6.176,8.402,13.464,8.402,21.865
		C529.447,732.941,526.682,740.193,521.153,746.368z M511.998,710.716c-3.808-3.806-8.439-5.709-13.896-5.709
		c-5.458,0-10.089,1.903-13.895,5.709c-3.808,3.807-5.709,8.438-5.709,13.895c0,5.458,1.901,10.09,5.709,13.895
		c3.806,3.808,8.437,5.709,13.895,5.709c5.456,0,10.088-1.901,13.896-5.709c3.805-3.805,5.709-8.437,5.709-13.895
		C517.707,719.154,515.803,714.522,511.998,710.716z"/>
	<path fill="#FFFFFF" d="M601.13,727.195c-0.108,0.935-0.234,2.012-0.378,3.231h-49.439c1.148,3.807,3.303,6.966,6.463,9.479
		c3.662,2.873,7.719,4.309,12.172,4.309c6.175,0,11.417-2.655,15.726-7.971l9.802,6.355c-3.16,4.165-6.984,7.415-11.471,9.748
		c-4.489,2.332-9.175,3.5-14.057,3.5c-8.547,0-15.871-3.086-21.974-9.263c-6.177-6.103-9.263-13.428-9.263-21.974
		c0-8.545,3.086-15.904,9.263-22.081c6.103-6.175,13.427-9.264,21.974-9.264c8.545,0,15.904,3.089,22.08,9.264
		c6.176,6.177,9.264,13.536,9.264,22.081C601.291,725.401,601.237,726.263,601.13,727.195z M551.312,718.687h37.377
		c-1.293-3.948-3.484-7.109-6.571-9.479c-3.446-2.8-7.505-4.2-12.171-4.2c-4.453,0-8.51,1.4-12.172,4.2
		C554.615,711.793,552.461,714.953,551.312,718.687z"/>
</g>
</svg>
